<svg width="20" height="22" viewBox="0 0 20 22" fill="none" xmlns="http://www.w3.org/2000/svg">
<path id="Vector" fill-rule="evenodd" clip-rule="evenodd" d="M11.1975 9.6353L8.79217 7.24616C8.37131 6.86683 8.36235 6.42487 8.7684 6.02804C9.17479 5.63052 9.6274 5.64028 10.0155 6.05193L13.9389 9.88639C14.0495 9.96045 14.1311 10.0618 14.1748 10.187C14.21 10.2876 14.2292 10.3916 14.2292 10.4983C14.2292 10.6067 14.2107 10.7107 14.1748 10.8134C14.1311 10.9382 14.0495 11.0399 13.9389 11.1136L10.0155 14.9484C9.62706 15.3601 9.17479 15.3691 8.7684 14.972C8.36235 14.5751 8.37131 14.1332 8.79217 13.7538L11.1975 11.3647H0.886444C0.643984 11.3647 0.424578 11.2863 0.252374 11.118C0.08017 10.9497 0 10.7353 0 10.4983C0 10.2627 0.0812088 10.049 0.252374 9.88202C0.424578 9.71372 0.643984 9.6353 0.886444 9.6353H11.1975ZM6.85555 1.72941V8.61374H5.08601V1.50693C5.08601 1.09393 5.24304 0.737141 5.54163 0.44531C5.84023 0.153489 6.20539 0 6.62796 0H18.4582C18.8808 0 19.2458 0.153489 19.5444 0.44531C19.844 0.737808 20 1.09258 20 1.50693V22H18.2309V1.72941H6.85555ZM5.08601 12.3863H6.85555V22H5.08601V12.3863Z" fill="#666666"/>
</svg>
